<svg width="720" height="420" viewBox="0 0 720 420" xmlns="http://www.w3.org/2000/svg" font-family="Arial, sans-serif">
  <defs>
    <style>
      .axis { stroke: #4b5563; stroke-width: 1.5; }
      .grid { stroke: #d1d5db; stroke-width: 1; stroke-dasharray: 4 4; }
      .label { fill: #111827; font-size: 14px; }
      .title { fill: #0f172a; font-size: 20px; font-weight: 600; }
      .legend { fill: #1f2937; font-size: 14px; }
    </style>
  </defs>

  <rect x="0" y="0" width="720" height="420" rx="16" fill="#f8fafc" />
  <text x="360" y="36" text-anchor="middle" class="title">Sample Player Prediction Trend</text>

  <!-- Plot area -->
  <g transform="translate(80, 60)">
    <rect x="0" y="0" width="560" height="280" fill="#ffffff" stroke="#e5e7eb" stroke-width="1.5" />

    <!-- Grid lines and labels -->
    <g class="grid">
      <line x1="0" y1="0" x2="560" y2="0" />
      <line x1="0" y1="70" x2="560" y2="70" />
      <line x1="0" y1="140" x2="560" y2="140" />
      <line x1="0" y1="210" x2="560" y2="210" />
      <line x1="0" y1="280" x2="560" y2="280" />
    </g>

    <g class="axis">
      <line x1="0" y1="0" x2="0" y2="280" />
      <line x1="0" y1="280" x2="560" y2="280" />
    </g>

    <!-- Y-axis labels -->
    <g class="label">
      <text x="-16" y="5">80</text>
      <text x="-16" y="75">75</text>
      <text x="-16" y="145">70</text>
      <text x="-16" y="215">65</text>
      <text x="-16" y="285">60</text>
      <text transform="rotate(-90)" x="-140" y="-50">Predicted Score</text>
    </g>

    <!-- X-axis labels -->
    <g class="label">
      <text x="40" y="306">2024-06-01</text>
      <text x="260" y="306">2024-06-02</text>
      <text x="480" y="306">2024-06-03</text>
    </g>

    <!-- Forward A -->
    <polyline fill="none" stroke="#1d4ed8" stroke-width="3" points="40,77 260,30.8 480,15.4" />
    <circle cx="40" cy="77" r="5" fill="#1d4ed8" />
    <circle cx="260" cy="30.8" r="5" fill="#1d4ed8" />
    <circle cx="480" cy="15.4" r="5" fill="#1d4ed8" />

    <!-- Midfielder B -->
    <polyline fill="none" stroke="#0f766e" stroke-width="3" points="40,123.2 260,106.4 480,98" />
    <circle cx="40" cy="123.2" r="5" fill="#0f766e" />
    <circle cx="260" cy="106.4" r="5" fill="#0f766e" />
    <circle cx="480" cy="98" r="5" fill="#0f766e" />

    <!-- Defender C -->
    <polyline fill="none" stroke="#f97316" stroke-width="3" points="40,141.4 260,138.6 480,119" />
    <circle cx="40" cy="141.4" r="5" fill="#f97316" />
    <circle cx="260" cy="138.6" r="5" fill="#f97316" />
    <circle cx="480" cy="119" r="5" fill="#f97316" />

    <!-- Goalkeeper D -->
    <polyline fill="none" stroke="#7c3aed" stroke-width="3" points="40,161 260,154 480,144.2" />
    <circle cx="40" cy="161" r="5" fill="#7c3aed" />
    <circle cx="260" cy="154" r="5" fill="#7c3aed" />
    <circle cx="480" cy="144.2" r="5" fill="#7c3aed" />
  </g>

  <!-- Legend -->
  <g class="legend">
    <rect x="480" y="60" width="180" height="112" rx="8" fill="#ffffff" stroke="#e2e8f0" />
    <g transform="translate(496, 84)">
      <circle cx="0" cy="0" r="6" fill="#1d4ed8" />
      <text x="16" y="4">Forward A</text>
    </g>
    <g transform="translate(496, 112)">
      <circle cx="0" cy="0" r="6" fill="#0f766e" />
      <text x="16" y="4">Midfielder B</text>
    </g>
    <g transform="translate(496, 140)">
      <circle cx="0" cy="0" r="6" fill="#f97316" />
      <text x="16" y="4">Defender C</text>
    </g>
    <g transform="translate(496, 168)">
      <circle cx="0" cy="0" r="6" fill="#7c3aed" />
      <text x="16" y="4">Goalkeeper D</text>
    </g>
  </g>
</svg>
