<svg width="720" height="420" viewBox="0 0 720 420" xmlns="http://www.w3.org/2000/svg" font-family="Arial, sans-serif">
  <defs>
    <style>
      .axis { stroke: #475569; stroke-width: 1.5; }
      .grid { stroke: #cbd5f5; stroke-width: 1; stroke-dasharray: 4 4; }
      .label { fill: #0f172a; font-size: 14px; }
      .title { fill: #0f172a; font-size: 20px; font-weight: 600; }
      .legend { fill: #1f2937; font-size: 14px; }
    </style>
  </defs>

  <rect x="0" y="0" width="720" height="420" rx="16" fill="#fdf4ff" />
  <text x="360" y="36" text-anchor="middle" class="title">Role-Based Average Prediction Trend</text>

  <g transform="translate(80, 60)">
    <rect x="0" y="0" width="560" height="280" fill="#ffffff" stroke="#e2e8f0" stroke-width="1.5" />

    <g class="grid">
      <line x1="0" y1="0" x2="560" y2="0" />
      <line x1="0" y1="70" x2="560" y2="70" />
      <line x1="0" y1="140" x2="560" y2="140" />
      <line x1="0" y1="210" x2="560" y2="210" />
      <line x1="0" y1="280" x2="560" y2="280" />
    </g>

    <g class="axis">
      <line x1="0" y1="0" x2="0" y2="280" />
      <line x1="0" y1="280" x2="560" y2="280" />
    </g>

    <g class="label">
      <text x="-16" y="5">80</text>
      <text x="-16" y="75">75</text>
      <text x="-16" y="145">70</text>
      <text x="-16" y="215">65</text>
      <text x="-16" y="285">60</text>
      <text transform="rotate(-90)" x="-160" y="-50">Average Score</text>
    </g>

    <g class="label">
      <text x="40" y="306">2024-06-01</text>
      <text x="260" y="306">2024-06-02</text>
      <text x="480" y="306">2024-06-03</text>
    </g>

    <!-- Forwards -->
    <polyline fill="none" stroke="#dc2626" stroke-width="3" points="40,77 260,30.8 480,15.4" />
    <circle cx="40" cy="77" r="5" fill="#dc2626" />
    <circle cx="260" cy="30.8" r="5" fill="#dc2626" />
    <circle cx="480" cy="15.4" r="5" fill="#dc2626" />

    <!-- Midfielders -->
    <polyline fill="none" stroke="#0284c7" stroke-width="3" points="40,123.2 260,106.4 480,98" />
    <circle cx="40" cy="123.2" r="5" fill="#0284c7" />
    <circle cx="260" cy="106.4" r="5" fill="#0284c7" />
    <circle cx="480" cy="98" r="5" fill="#0284c7" />

    <!-- Defenders -->
    <polyline fill="none" stroke="#fbbf24" stroke-width="3" points="40,141.4 260,138.6 480,119" />
    <circle cx="40" cy="141.4" r="5" fill="#fbbf24" />
    <circle cx="260" cy="138.6" r="5" fill="#fbbf24" />
    <circle cx="480" cy="119" r="5" fill="#fbbf24" />

    <!-- Goalkeepers -->
    <polyline fill="none" stroke="#22c55e" stroke-width="3" points="40,161 260,154 480,144.2" />
    <circle cx="40" cy="161" r="5" fill="#22c55e" />
    <circle cx="260" cy="154" r="5" fill="#22c55e" />
    <circle cx="480" cy="144.2" r="5" fill="#22c55e" />
  </g>

  <g class="legend">
    <rect x="480" y="60" width="180" height="112" rx="8" fill="#ffffff" stroke="#e2e8f0" />
    <g transform="translate(496, 84)">
      <circle cx="0" cy="0" r="6" fill="#dc2626" />
      <text x="16" y="4">Forwards</text>
    </g>
    <g transform="translate(496, 112)">
      <circle cx="0" cy="0" r="6" fill="#0284c7" />
      <text x="16" y="4">Midfielders</text>
    </g>
    <g transform="translate(496, 140)">
      <circle cx="0" cy="0" r="6" fill="#fbbf24" />
      <text x="16" y="4">Defenders</text>
    </g>
    <g transform="translate(496, 168)">
      <circle cx="0" cy="0" r="6" fill="#22c55e" />
      <text x="16" y="4">Goalkeepers</text>
    </g>
  </g>
</svg>
