<svg width="720" height="420" viewBox="0 0 720 420" xmlns="http://www.w3.org/2000/svg" font-family="Arial, sans-serif">
  <defs>
    <style>
      .axis { stroke: #1f2937; stroke-width: 1.5; }
      .grid { stroke: #e5e7eb; stroke-width: 1; stroke-dasharray: 4 4; }
      .label { fill: #111827; font-size: 14px; }
      .title { fill: #111827; font-size: 20px; font-weight: 600; }
      .legend { fill: #1f2937; font-size: 14px; }
    </style>
  </defs>

  <rect x="0" y="0" width="720" height="420" rx="16" fill="#f1f5f9" />
  <text x="360" y="36" text-anchor="middle" class="title">Team Performance Indices</text>

  <g transform="translate(80, 60)">
    <rect x="0" y="0" width="560" height="280" fill="#ffffff" stroke="#d1d5db" stroke-width="1.5" />

    <g class="grid">
      <line x1="0" y1="0" x2="560" y2="0" />
      <line x1="0" y1="70" x2="560" y2="70" />
      <line x1="0" y1="140" x2="560" y2="140" />
      <line x1="0" y1="210" x2="560" y2="210" />
      <line x1="0" y1="280" x2="560" y2="280" />
    </g>

    <g class="axis">
      <line x1="0" y1="0" x2="0" y2="280" />
      <line x1="0" y1="280" x2="560" y2="280" />
    </g>

    <g class="label">
      <text x="-16" y="5">76</text>
      <text x="-16" y="75">74</text>
      <text x="-16" y="145">72</text>
      <text x="-16" y="215">70</text>
      <text x="-16" y="285">68</text>
      <text transform="rotate(-90)" x="-160" y="-50">Score</text>
    </g>

    <g class="label">
      <text x="40" y="306">2024-06-01</text>
      <text x="260" y="306">2024-06-02</text>
      <text x="480" y="306">2024-06-03</text>
    </g>

    <!-- Final Grouped Score -->
    <polyline fill="none" stroke="#2563eb" stroke-width="4" points="40,256.0 260,182.3 480,121.7" />
    <circle cx="40" cy="256.0" r="6" fill="#2563eb" />
    <circle cx="260" cy="182.3" r="6" fill="#2563eb" />
    <circle cx="480" cy="121.7" r="6" fill="#2563eb" />

    <!-- Overall Team Score -->
    <polyline fill="none" stroke="#f59e0b" stroke-width="4" points="40,325.3 260,247.3 480,191.0" />
    <circle cx="40" cy="325.3" r="6" fill="#f59e0b" />
    <circle cx="260" cy="247.3" r="6" fill="#f59e0b" />
    <circle cx="480" cy="191.0" r="6" fill="#f59e0b" />
  </g>

  <g class="legend">
    <rect x="480" y="60" width="180" height="84" rx="8" fill="#ffffff" stroke="#d1d5db" />
    <g transform="translate(496, 84)">
      <circle cx="0" cy="0" r="6" fill="#2563eb" />
      <text x="16" y="4">Final Grouped Score</text>
    </g>
    <g transform="translate(496, 112)">
      <circle cx="0" cy="0" r="6" fill="#f59e0b" />
      <text x="16" y="4">Overall Team Score</text>
    </g>
  </g>
</svg>
